<svg width="38" height="38" viewBox="0 0 38 38" fill="none" xmlns="http://www.w3.org/2000/svg">
<path d="M23.433 10.1332C24.2576 10.1332 24.9542 10.6645 25.2164 11.3998H31.7828C32.045 10.6645 32.7417 10.1332 33.5663 10.1332C34.6138 10.1332 35.4663 10.9856 35.4663 12.0331C35.4663 13.0807 34.6138 13.9331 33.5663 13.9331C32.7417 13.9331 32.045 13.4018 31.7828 12.6665H25.2158C24.9536 13.4018 24.2569 13.9331 23.4323 13.9331C22.3848 13.9331 21.5323 13.0807 21.5323 12.0331C21.5323 10.9856 22.3854 10.1332 23.433 10.1332ZM33.5663 12.6665C33.9153 12.6665 34.1996 12.3827 34.1996 12.0331C34.1996 11.6836 33.9153 11.3998 33.5663 11.3998C33.2173 11.3998 32.933 11.6836 32.933 12.0331C32.933 12.3827 33.2173 12.6665 33.5663 12.6665ZM23.433 12.6665C23.7819 12.6665 24.0663 12.3827 24.0663 12.0331C24.0663 11.6836 23.7819 11.3998 23.433 11.3998C23.084 11.3998 22.7996 11.6836 22.7996 12.0331C22.7996 12.3827 23.084 12.6665 23.433 12.6665Z" fill="#00B2FF"/>
<path d="M18.3665 14.0497V10.1332C18.3665 9.96475 18.433 9.80388 18.5521 9.68545L21.0854 7.15216C21.2038 7.0331 21.3653 6.9666 21.5332 6.9666H23.5497C23.8119 6.23131 24.5086 5.69995 25.3332 5.69995C26.3807 5.69995 27.2332 6.5524 27.2332 7.59992C27.2332 8.64744 26.3807 9.49989 25.3332 9.49989C24.5086 9.49989 23.8119 8.96853 23.5497 8.23324H21.7954L19.6332 10.3954V14.0497C20.3685 14.3119 20.8998 15.0085 20.8998 15.8331C20.8998 16.8806 20.0474 17.7331 18.9998 17.7331C17.9523 17.7331 17.0998 16.8806 17.0998 15.8331C17.0998 15.0085 17.6312 14.3119 18.3665 14.0497ZM25.3332 8.23324C25.6821 8.23324 25.9665 7.94951 25.9665 7.59992C25.9665 7.25033 25.6821 6.9666 25.3332 6.9666C24.9842 6.9666 24.6998 7.25033 24.6998 7.59992C24.6998 7.94951 24.9842 8.23324 25.3332 8.23324ZM18.9998 16.4664C19.3488 16.4664 19.6332 16.1827 19.6332 15.8331C19.6332 15.4835 19.3488 15.1998 18.9998 15.1998C18.6509 15.1998 18.3665 15.4835 18.3665 15.8331C18.3665 16.1827 18.6509 16.4664 18.9998 16.4664Z" fill="#00B2FF"/>
<path d="M6.96642 16.4664C7.25902 16.4664 7.53262 16.538 7.78025 16.657L8.86642 15.5709V9.49984C8.86642 9.33138 8.93292 9.17051 9.05199 9.05208L15.3904 2.71379C15.2713 2.46616 15.1998 2.19256 15.1998 1.89997C15.1998 0.852452 16.0522 0 17.0998 0C18.1473 0 18.9998 0.852452 18.9998 1.89997C18.9998 2.94748 18.1473 3.79994 17.0998 3.79994C16.8072 3.79994 16.5336 3.72837 16.2859 3.60931L10.1331 9.76204V15.8331C10.1331 16.0015 10.0666 16.1624 9.94752 16.2808L8.67579 17.5525C8.79486 17.8002 8.86642 18.0738 8.86642 18.3664C8.86642 19.4139 8.01395 20.2663 6.96642 20.2663C5.91889 20.2663 5.06642 19.4139 5.06642 18.3664C5.06642 17.3188 5.91889 16.4664 6.96642 16.4664ZM17.0998 2.53329C17.4487 2.53329 17.7331 2.24956 17.7331 1.89997C17.7331 1.55037 17.4487 1.26665 17.0998 1.26665C16.7508 1.26665 16.4664 1.55037 16.4664 1.89997C16.4664 2.24956 16.7508 2.53329 17.0998 2.53329ZM6.96642 18.9997C7.31539 18.9997 7.59975 18.716 7.59975 18.3664C7.59975 18.0168 7.31539 17.733 6.96642 17.733C6.61745 17.733 6.33309 18.0168 6.33309 18.3664C6.33309 18.716 6.61745 18.9997 6.96642 18.9997Z" fill="#00B2FF"/>
<path d="M1.26647 8.98305V6.33323C1.26647 6.16476 1.33297 6.0039 1.45204 5.88547L5.88537 1.45221C6.0038 1.33314 6.1653 1.26665 6.33314 1.26665H9.61634C9.87854 0.531358 10.5752 0 11.3998 0C12.4473 0 13.2998 0.852452 13.2998 1.89997C13.2998 2.94748 12.4473 3.79994 11.3998 3.79994C10.5752 3.79994 9.87854 3.26858 9.61634 2.53329H6.59534L2.53314 6.59542V8.98305C3.26844 9.24525 3.7998 9.9419 3.7998 10.7665C3.7998 11.814 2.94734 12.6665 1.8998 12.6665C0.852271 12.6665 -0.000195146 11.814 -0.000195146 10.7665C-0.000195146 9.9419 0.531172 9.24525 1.26647 8.98305ZM11.3998 2.53329C11.7488 2.53329 12.0331 2.24956 12.0331 1.89997C12.0331 1.55037 11.7488 1.26665 11.3998 1.26665C11.0508 1.26665 10.7665 1.55037 10.7665 1.89997C10.7665 2.24956 11.0508 2.53329 11.3998 2.53329ZM1.8998 11.3998C2.24877 11.3998 2.53314 11.1161 2.53314 10.7665C2.53314 10.4169 2.24877 10.1332 1.8998 10.1332C1.55084 10.1332 1.26647 10.4169 1.26647 10.7665C1.26647 11.1161 1.55084 11.3998 1.8998 11.3998Z" fill="#00B2FF"/>
<path d="M10.1325 34.3166V25.2164C9.39784 24.9542 8.86647 24.2575 8.86647 23.4329C8.86647 22.3854 9.71894 21.533 10.7665 21.533C11.5911 21.533 12.2877 22.0643 12.5499 22.7996H19.1163C19.3785 22.0643 20.0752 21.533 20.8998 21.533C21.7244 21.533 22.4211 22.0643 22.6833 22.7996H26.3376L28.6904 20.4468C28.5714 20.1992 28.4998 19.9256 28.4998 19.633C28.4998 18.5855 29.3523 17.733 30.3998 17.733C31.4473 17.733 32.2998 18.5855 32.2998 19.633C32.2998 20.6805 31.4473 21.533 30.3998 21.533C30.1072 21.533 29.8336 21.4614 29.586 21.3423L27.0476 23.8807C26.9291 23.9998 26.7676 24.0663 26.5998 24.0663H22.6833C22.4211 24.8015 21.7244 25.3329 20.8998 25.3329C20.0752 25.3329 19.3785 24.8015 19.1163 24.0663H12.5493C12.358 24.6027 11.9356 25.0251 11.3992 25.2164V34.3166C12.1345 34.5788 12.6658 35.2754 12.6658 36.1C12.6658 37.1475 11.8134 38 10.7658 38C9.71831 38 8.86584 37.1475 8.86584 36.1C8.86584 35.2754 9.39721 34.5788 10.1325 34.3166ZM30.3998 20.2663C30.7488 20.2663 31.0331 19.9826 31.0331 19.633C31.0331 19.2834 30.7488 18.9997 30.3998 18.9997C30.0508 18.9997 29.7665 19.2834 29.7665 19.633C29.7665 19.9826 30.0508 20.2663 30.3998 20.2663ZM20.8998 24.0663C21.2488 24.0663 21.5331 23.7825 21.5331 23.4329C21.5331 23.0833 21.2488 22.7996 20.8998 22.7996C20.5508 22.7996 20.2665 23.0833 20.2665 23.4329C20.2665 23.7825 20.5508 24.0663 20.8998 24.0663ZM10.7665 36.7327C11.1154 36.7327 11.3998 36.449 11.3998 36.0994C11.3998 35.7498 11.1154 35.4661 10.7665 35.4661C10.4175 35.4661 10.1331 35.7498 10.1331 36.0994C10.1331 36.449 10.4175 36.7327 10.7665 36.7327ZM10.7665 24.0663C11.1154 24.0663 11.3998 23.7825 11.3998 23.4329C11.3998 23.0833 11.1154 22.7996 10.7665 22.7996C10.4175 22.7996 10.1331 23.0833 10.1331 23.4329C10.1331 23.7825 10.4175 24.0663 10.7665 24.0663Z" fill="#00B2FF"/>
<path d="M13.2995 12.783V10.7665C13.2995 10.598 13.366 10.4372 13.4851 10.3187L21.0902 2.71379C20.9711 2.46616 20.8995 2.19256 20.8995 1.89997C20.8995 0.852452 21.752 0 22.7995 0C23.6241 0 24.3208 0.531358 24.583 1.26665H27.2329C27.5825 1.26665 27.8662 1.54974 27.8662 1.89997V3.53774L30.219 5.89053C30.4667 5.77147 30.7403 5.6999 31.0329 5.6999C32.0804 5.6999 32.9329 6.55236 32.9329 7.59987C32.9329 8.64739 32.0804 9.49984 31.0329 9.49984C29.9853 9.49984 29.1329 8.64739 29.1329 7.59987C29.1329 7.30728 29.2044 7.03368 29.3235 6.78605L26.7851 4.2477C26.666 4.12926 26.5995 3.9684 26.5995 3.79994V2.53329H24.583C24.3208 3.26858 23.6241 3.79994 22.7995 3.79994C22.5069 3.79994 22.2333 3.72837 21.9857 3.60931L14.5662 11.0287V12.783C15.3015 13.0452 15.8329 13.7418 15.8329 14.5664C15.8329 15.6139 14.9804 16.4664 13.9329 16.4664C12.8853 16.4664 12.0329 15.6139 12.0329 14.5664C12.0329 13.7418 12.5642 13.0452 13.2995 12.783ZM31.0329 8.2332C31.3818 8.2332 31.6662 7.94947 31.6662 7.59987C31.6662 7.25028 31.3818 6.96655 31.0329 6.96655C30.6839 6.96655 30.3995 7.25028 30.3995 7.59987C30.3995 7.94947 30.6839 8.2332 31.0329 8.2332ZM22.7995 2.53329C23.1485 2.53329 23.4329 2.24956 23.4329 1.89997C23.4329 1.55037 23.1485 1.26665 22.7995 1.26665C22.4506 1.26665 22.1662 1.55037 22.1662 1.89997C22.1662 2.24956 22.4506 2.53329 22.7995 2.53329ZM13.9329 15.1997C14.2818 15.1997 14.5662 14.916 14.5662 14.5664C14.5662 14.2168 14.2818 13.9331 13.9329 13.9331C13.5839 13.9331 13.2995 14.2168 13.2995 14.5664C13.2995 14.916 13.5839 15.1997 13.9329 15.1997Z" fill="#00B2FF"/>
<path d="M15.1998 17.733C16.0244 17.733 16.721 18.2644 16.9832 18.9997H24.4376L28.052 15.3853C28.1704 15.2662 28.3319 15.1997 28.4998 15.1997H35.2042L36.7331 13.6709V8.49539L31.8469 3.60931C31.5993 3.72837 31.3257 3.79994 31.0331 3.79994C29.9856 3.79994 29.1331 2.94748 29.1331 1.89997C29.1331 0.852452 29.9856 0 31.0331 0C32.0806 0 32.9331 0.852452 32.9331 1.89997C32.9331 2.19256 32.8615 2.46616 32.7425 2.71379L37.8142 7.78544C37.9333 7.90387 37.9998 8.06473 37.9998 8.2332V13.9331C37.9998 14.1016 37.9333 14.2624 37.8142 14.3809L35.9142 16.2808C35.7958 16.3999 35.6343 16.4664 35.4664 16.4664H28.762L25.1475 20.0808C25.0291 20.1998 24.8676 20.2663 24.6998 20.2663H16.9832C16.721 21.0016 16.0244 21.533 15.1998 21.533C14.1522 21.533 13.2998 20.6805 13.2998 19.633C13.2998 18.5855 14.1522 17.733 15.1998 17.733ZM31.0331 1.26665C30.6841 1.26665 30.3998 1.55037 30.3998 1.89997C30.3998 2.24956 30.6841 2.53329 31.0331 2.53329C31.3821 2.53329 31.6664 2.24956 31.6664 1.89997C31.6664 1.55037 31.3821 1.26665 31.0331 1.26665ZM15.1998 20.2663C15.5487 20.2663 15.8331 19.9826 15.8331 19.633C15.8331 19.2834 15.5487 18.9997 15.1998 18.9997C14.8508 18.9997 14.5664 19.2834 14.5664 19.633C14.5664 19.9826 14.8508 20.2663 15.1998 20.2663Z" fill="#00B2FF"/>
<path d="M1.90003 15.1998C2.19263 15.1998 2.46623 15.2714 2.71387 15.3904L5.0667 13.0376V9.38336C4.3314 9.12116 3.80003 8.42451 3.80003 7.59992C3.80003 6.5524 4.6525 5.69995 5.70003 5.69995C6.74757 5.69995 7.60003 6.5524 7.60003 7.59992C7.60003 8.42451 7.06867 9.12116 6.33337 9.38336V13.2998C6.33337 13.4683 6.26687 13.6292 6.1478 13.7476L3.6094 16.2859C3.72847 16.5336 3.80003 16.8072 3.80003 17.0998C3.80003 17.9243 3.26867 18.621 2.53337 18.8832V19.3709L7.41447 24.2519C7.53353 24.3703 7.60003 24.5312 7.60003 24.6996V25.4495C8.33533 25.7117 8.8667 26.4083 8.8667 27.2329C8.8667 28.0575 8.33533 28.7542 7.60003 29.0164V30.5167C8.33533 30.7789 8.8667 31.4756 8.8667 32.3001C8.8667 33.3477 8.01423 34.2001 6.9667 34.2001C5.91917 34.2001 5.0667 33.3477 5.0667 32.3001C5.0667 31.4756 5.59807 30.7789 6.33337 30.5167V29.0164C5.59807 28.7542 5.0667 28.0575 5.0667 27.2329C5.0667 26.4083 5.59807 25.7117 6.33337 25.4495V24.9618L1.45227 20.0808C1.3332 19.9624 1.2667 19.8015 1.2667 19.6331V18.8832C0.531399 18.621 3.26633e-05 17.9243 3.26633e-05 17.0998C3.26633e-05 16.0522 0.852499 15.1998 1.90003 15.1998ZM5.70003 8.23324C6.049 8.23324 6.33337 7.94951 6.33337 7.59992C6.33337 7.25033 6.049 6.9666 5.70003 6.9666C5.35107 6.9666 5.0667 7.25033 5.0667 7.59992C5.0667 7.94951 5.35107 8.23324 5.70003 8.23324ZM6.9667 32.9328C7.31567 32.9328 7.60003 32.6491 7.60003 32.2995C7.60003 31.9499 7.31567 31.6662 6.9667 31.6662C6.61773 31.6662 6.33337 31.9499 6.33337 32.2995C6.33337 32.6491 6.61773 32.9328 6.9667 32.9328ZM6.9667 27.8662C7.31567 27.8662 7.60003 27.5825 7.60003 27.2329C7.60003 26.8833 7.31567 26.5996 6.9667 26.5996C6.61773 26.5996 6.33337 26.8833 6.33337 27.2329C6.33337 27.5825 6.61773 27.8662 6.9667 27.8662ZM1.90003 17.7331C2.249 17.7331 2.53337 17.4494 2.53337 17.0998C2.53337 16.7502 2.249 16.4664 1.90003 16.4664C1.55107 16.4664 1.2667 16.7502 1.2667 17.0998C1.2667 17.4494 1.55107 17.7331 1.90003 17.7331Z" fill="#00B2FF"/>
</svg>
